{"title":"The Recruit - S02E03","uid":15555978,"size":464256757,"categoryP":"video","categoryS":"tv_shows","magnet":"?xt=urn:btih:1ffad500679d555fddf3d3410ee24b207938b3aa&amp;dn=The+Recruit+-+S02E03&amp;tr=udp%3A%2F%2Ftracker.leechers-paradise.org%3A6969&amp;tr=udp%3A%2F%2Fzer0day.ch%3A1337&amp;tr=udp%3A%2F%2Fopen.demonii.com%3A1337&amp;tr=udp%3A%2F%2Ftracker.coppersurfer.tk%3A6969&amp;tr=udp%3A%2F%2Fexodus.desync.com%3A6969","seeders":8,"leechers":1,"uploader":"Bullrout","files":1,"time":1471070562,"description":"The Recruit - S02E03\r\n\r\nGiving Back? is the Recruits focus this week and with a footy clinic in Darwin, the sweltering heat proves too much for some as Coach Malthouse has no patience for a couple of Recruits who snuck out for a few beers in Darwin.\r\n\r\nComplete name                            : The Recruit - S02E03.mp4\r\nFormat                                   : MPEG-4\r\nFormat profile                           : Base Media / Version 2\r\nCodec ID                                 : mp42 (mp42/isom/avc1)\r\nFile size                                : 443 MiB\r\nDuration                                 : 55mn 40s\r\nOverall bit rate mode                    : Variable\r\nOverall bit rate                         : 1 112 Kbps\r\n\r\nVideo\r\nID                                       : 2\r\nFormat                                   : AVC\r\nFormat/Info                              : Advanced Video Codec\r\nFormat profile                           :   \r\nFormat settings, CABAC                   : Yes\r\nFormat settings, ReFrames                : 3 frames\r\nCodec ID                                 : avc1\r\nCodec ID/Info                            : Advanced Video Coding\r\nDuration                                 : 55mn 40s\r\nBit rate mode                            : Variable\r\nBit rate                                 : 980 Kbps\r\nMaximum bit rate                         : 1 000 Kbps\r\nWidth                                    : 720 pixels\r\nHeight                                   : 404 pixels\r\nDisplay aspect ratio                     : 16:9\r\nOriginal display aspect ratio            : 16:9\r\nFrame rate mode                          : Constant\r\nFrame rate                               : 25.000 fps\r\nStandard                                 : PAL\r\nColor space                              : YUV\r\nChroma subsampling                       : 4:2:0\r\nBit depth                                : 8 bits\r\nScan type                                : Progressive\r\nBits/(Pixel*Frame)                       : 0.135\r\nStream size                              : 390 MiB (88%)\r\nWriting library                          : x264 core 112\r\nColor range                              : Limited\r\nColor primaries                          : BT.601 PAL\r\nTransfer characteristics                 : BT.470 System B, BT.470 System G\r\nMatrix coefficients                      : BT.601\r\n\r\nAudio\r\nID                                       : 1\r\nFormat                                   : AAC\r\nFormat/Info                              : Advanced Audio Codec\r\nFormat profile                           : LC\r\nCodec ID                                 : 40\r\nDuration                                 : 55mn 40s\r\nBit rate mode                            : Variable\r\nBit rate                                 : 128 Kbps\r\nMaximum bit rate                         : 576 Kbps\r\nChannel(s)                               : 2 channels\r\nChannel positions                        : Front: L R\r\nSampling rate                            : 48.0 KHz\r\nFrame rate                               : 46.875 fps (1024 spf)\r\nCompression mode                         : Lossy\r\nStream size                              : 51.0 MiB (12%)","torrent":{"xt":"urn:btih:1ffad500679d555fddf3d3410ee24b207938b3aa","amp;dn":"The+Recruit+-+S02E03","amp;tr":["udp%3A%2F%2Ftracker.leechers-paradise.org%3A6969","udp%3A%2F%2Fzer0day.ch%3A1337","udp%3A%2F%2Fopen.demonii.com%3A1337","udp%3A%2F%2Ftracker.coppersurfer.tk%3A6969","udp%3A%2F%2Fexodus.desync.com%3A6969"],"infoHash":"1ffad500679d555fddf3d3410ee24b207938b3aa","infoHashBuffer":{"type":"Buffer","data":[31,250,213,0,103,157,85,95,221,243,211,65,14,226,75,32,121,56,179,170]},"announce":[],"urlList":[]}}